# xmcd
#
# Track frame offsets:
#	150
#	15432
#	29255
#	42609
#	61161
#	73693
#	88089
#	105979
#	121967
#	135709
#	146597
#	160451
#	173531
#	191186
#	205417
#
# Disc length: 2920 seconds
#
# Revision: 0
# Processed by: cddbd v1.5.1PL0 Copyright (c) Steve Scherf et al.
# Submitted via: dBpowerAMP V4.0
#
DISCID=d30b660f
DTITLE=Ghost Riders - The Highway
DYEAR=2004
DGENRE=country
TTITLE0=The Highway
TTITLE1=I Wish My Beer Were As Cold As Her Heart
TTITLE2=Don't Be Angry
TTITLE3=Rose-A-Lee
TTITLE4=Hardest Thing I Had To Do
TTITLE5=Corrina, Corrina
TTITLE6=Lovin' You
TTITLE7=Slide Mountain Rag
TTITLE8=Something To Remember You By
TTITLE9=Low Blue Flame
TTITLE10=Worried Man Blues
TTITLE11=Moontan
TTITLE12=Ghost Town
TTITLE13=Let It Roll
TTITLE14=I Don't Need Your Love Tonight
EXTD=www.ghostridersonline.com
EXTT0=
EXTT1=
EXTT2=
EXTT3=
EXTT4=
EXTT5=
EXTT6=
EXTT7=
EXTT8=
EXTT9=
EXTT10=
EXTT11=
EXTT12=
EXTT13=
EXTT14=
PLAYORDER=
